<svg xmlns="http://www.w3.org/2000/svg" width="32" height="32" viewBox="0 0 32 32" fill="none">
  <path stroke="null" id="svg_1" fill="#000"
    d="m29.62967,-0.0408l-27.26476,0a2.40571,2.4004 0 0 0 -2.40571,2.4004l0,27.20451a2.40571,2.4004 0 0 0 2.40571,2.4004l27.26476,0a2.40571,2.4004 0 0 0 2.40571,-2.4004l0,-27.20451a2.40571,2.4004 0 0 0 -2.40571,-2.4004zm-20.04762,27.20451l-4.81143,0l0,-14.40239l4.81143,0l0,14.40239zm-2.40571,-17.20285a2.80667,2.80046 0 1 1 2.88686,-2.80046a2.85478,2.84847 0 0 1 -2.88686,2.80046zm20.04762,17.20285l-4.81143,0l0,-7.58526c0,-2.27238 -0.96229,-3.08851 -2.21326,-3.08851a2.79063,2.78446 0 0 0 -2.59817,2.97649a1.05851,1.05618 0 0 0 0,0.22404l0,7.47324l-4.81143,0l0,-14.40239l4.65105,0l0,2.08035a4.98785,4.97683 0 0 1 4.33029,-2.24037c2.4859,0 5.3888,1.37623 5.3888,5.85697l0.06415,8.70544z"
    clip-rule="evenodd" fill-rule="evenodd" />
</svg>