<svg xmlns="http://www.w3.org/2000/svg" width="32" height="32" viewBox="0 0 32 32" fill="none">>
  <path stroke="null" fill="#fff"
    d="m29.33371,17.72764l-5.21598,2.95204l-4.67828,-4.649l4.71555,-4.68627l5.17872,2.93075a1.98311,1.98311 0 0 1 0,3.45248zm-27.52533,-16.46914a1.97779,1.97779 0 0 0 -0.14907,0.75598l0,27.97252c0,0.28882 0.05989,0.55767 0.16504,0.79857l14.84672,-14.75622l-14.86269,-14.77086zm16.24688,13.39599l4.33623,-4.30961l-17.77081,-10.05664a1.95117,1.95117 0 0 0 -1.25908,-0.23824l14.69366,14.60449zm0,2.75107l-14.64042,14.55125c0.39662,0.04791 0.81454,-0.0213 1.20584,-0.24356l17.73354,-10.03534l-4.29896,-4.27234z" />
</svg>