<svg version="1.0" id="Layer_1" xmlns="http://www.w3.org/2000/svg" xmlns:xlink="http://www.w3.org/1999/xlink" width="32"
	height="32" viewBox="0 0 32 32" fill="#fff">
	<path xmlns="http://www.w3.org/2000/svg" stroke="null" id="svg_1"
		d="m29.25255,0.22581l-26.50511,0c-1.45753,0 -2.65067,1.18346 -2.65067,2.62916l0,26.29045c0,1.44531 1.19314,2.62877 2.65067,2.62877l26.50551,0c1.45713,0 2.65027,-1.18346 2.65027,-2.62916l0,-26.29006c0,-1.4457 -1.19314,-2.62916 -2.65067,-2.62916zm-22.5293,10.51626c0,-2.17723 1.78076,-3.94355 3.97581,-3.94355c2.19504,0 3.97581,1.76632 3.97581,3.94355l-2.65067,0c0,-0.7264 -0.59359,-1.31438 -1.32514,-1.31438s-1.32514,0.58798 -1.32514,1.31438l0,5.25675c0,0.72522 0.59319,1.31438 1.32514,1.31438s1.32514,-0.58917 1.32514,-1.31438l2.65067,0c0,2.17842 -1.78076,3.94355 -3.97581,3.94355c-2.19504,0 -3.97581,-1.76553 -3.97581,-3.94355l0,-5.25675zm18.5535,14.45941l-18.5535,0l0,-2.62877l18.55389,0l0,2.62877l-0.0004,0zm-3.31304,-5.25793l-2.65067,0l-3.31304,-13.14503l2.73217,0l1.9064,7.56373l1.9064,-7.56373l2.73178,0l-3.31304,13.14503z" />
</svg>