<svg width="698.206" height="70.007" viewBox="0 0 698.206 70.007" xmlns="http://www.w3.org/2000/svg">
  <g id="svgGroup" stroke-linecap="round" fill-rule="evenodd" font-size="9pt" stroke="#fff" stroke-width="0.25mm"
    fill="#fff" style="stroke:#fff;stroke-width:0.25mm;fill:#fff">
    <path
      d="M 85.505 0.004 L 85.505 16.504 L 28.205 16.504 A 15.67 15.67 0 0 0 23.508 17.152 Q 17.185 19.137 16.205 27.204 L 85.805 27.204 L 85.805 40.504 Q 85.805 63.796 65.98 68.698 A 50.042 50.042 0 0 1 54.005 70.004 L 0.005 70.004 L 0.005 53.404 L 57.605 53.404 Q 61.792 53.404 64.52 51.653 A 9.119 9.119 0 0 0 65.755 50.704 Q 68.705 48.004 69.505 42.904 L 0.005 42.904 L 0.005 29.504 Q 0.005 6.255 19.817 1.329 A 50.239 50.239 0 0 1 31.905 0.004 L 85.505 0.004 Z M 476.105 34.904 L 476.105 16.504 L 404.805 16.504 L 404.805 0.004 L 493.105 0.004 L 493.105 35.204 Q 493.105 43.404 490.755 49.854 A 31.108 31.108 0 0 1 486.561 57.761 A 28.029 28.029 0 0 1 483.955 60.804 A 28.339 28.339 0 0 1 475.035 66.846 A 33.758 33.758 0 0 1 473.005 67.654 A 38.469 38.469 0 0 1 465.123 69.554 A 51.03 51.03 0 0 1 458.205 70.004 L 404.805 70.004 L 404.805 27.204 L 421.805 27.204 L 421.805 53.404 L 457.805 53.404 A 26.076 26.076 0 0 0 465.047 52.487 Q 476.105 49.285 476.105 34.904 Z M 505.505 0.004 L 522.505 0.004 L 522.505 34.104 Q 522.505 50.722 541.93 53.031 A 57.55 57.55 0 0 0 548.705 53.404 L 576.805 53.404 L 576.805 0.004 L 593.805 0.004 L 593.805 70.004 L 544.305 70.004 A 56.855 56.855 0 0 1 535.467 69.346 A 44.237 44.237 0 0 1 528.255 67.604 A 34.747 34.747 0 0 1 519.775 63.463 A 30.818 30.818 0 0 1 516.055 60.504 Q 511.005 55.804 508.255 48.904 A 37.676 37.676 0 0 1 506.032 40.477 A 50.756 50.756 0 0 1 505.505 33.004 L 505.505 0.004 Z M 203.205 0.004 L 220.205 0.004 L 220.205 53.404 L 256.705 53.404 A 26.503 26.503 0 0 0 262.836 52.747 Q 266.906 51.778 269.627 49.379 A 14.848 14.848 0 0 0 273.805 42.904 L 291.405 42.904 Q 289.105 56.404 280.205 63.204 A 31.663 31.663 0 0 1 268.484 68.702 Q 263.919 69.84 258.565 69.983 A 58.302 58.302 0 0 1 257.005 70.004 L 203.205 70.004 L 203.205 0.004 Z M 132.505 0.004 L 190.405 0.004 L 190.405 35.204 Q 190.405 43.404 188.055 49.854 A 31.108 31.108 0 0 1 183.861 57.761 A 28.029 28.029 0 0 1 181.255 60.804 A 28.339 28.339 0 0 1 172.335 66.846 A 33.758 33.758 0 0 1 170.305 67.654 A 38.469 38.469 0 0 1 162.423 69.554 A 51.03 51.03 0 0 1 155.505 70.004 L 97.505 70.004 L 97.505 34.904 A 47.018 47.018 0 0 1 98.168 26.841 A 37.292 37.292 0 0 1 99.855 20.454 A 30.882 30.882 0 0 1 104.466 12.005 A 28.482 28.482 0 0 1 106.705 9.454 A 29.634 29.634 0 0 1 115.917 3.184 A 34.956 34.956 0 0 1 117.705 2.454 Q 124.205 0.004 132.505 0.004 Z M 334.105 0.004 L 392.005 0.004 L 392.005 35.204 Q 392.005 43.404 389.655 49.854 A 31.108 31.108 0 0 1 385.461 57.761 A 28.029 28.029 0 0 1 382.855 60.804 A 28.339 28.339 0 0 1 373.935 66.846 A 33.758 33.758 0 0 1 371.905 67.654 A 38.469 38.469 0 0 1 364.023 69.554 A 51.03 51.03 0 0 1 357.105 70.004 L 299.105 70.004 L 299.105 34.904 A 47.018 47.018 0 0 1 299.768 26.841 A 37.292 37.292 0 0 1 301.455 20.454 A 30.882 30.882 0 0 1 306.066 12.005 A 28.482 28.482 0 0 1 308.305 9.454 A 29.634 29.634 0 0 1 317.517 3.184 A 34.956 34.956 0 0 1 319.305 2.454 Q 325.805 0.004 334.105 0.004 Z M 640.305 0.004 L 698.205 0.004 L 698.205 35.204 Q 698.205 43.404 695.855 49.854 A 31.108 31.108 0 0 1 691.661 57.761 A 28.029 28.029 0 0 1 689.055 60.804 A 28.339 28.339 0 0 1 680.135 66.846 A 33.758 33.758 0 0 1 678.105 67.654 A 38.469 38.469 0 0 1 670.223 69.554 A 51.03 51.03 0 0 1 663.305 70.004 L 605.305 70.004 L 605.305 34.904 A 47.018 47.018 0 0 1 605.968 26.841 A 37.292 37.292 0 0 1 607.655 20.454 A 30.882 30.882 0 0 1 612.266 12.005 A 28.482 28.482 0 0 1 614.505 9.454 A 29.634 29.634 0 0 1 623.717 3.184 A 34.956 34.956 0 0 1 625.505 2.454 Q 632.005 0.004 640.305 0.004 Z M 173.405 34.904 L 173.405 16.504 L 132.805 16.504 Q 128.991 16.504 126.108 16.97 A 23.571 23.571 0 0 0 124.005 17.404 Q 120.505 18.304 118.405 20.454 Q 116.305 22.604 115.405 26.204 A 26.417 26.417 0 0 0 114.857 29.157 Q 114.648 30.743 114.563 32.578 A 56.939 56.939 0 0 0 114.505 35.204 L 114.505 53.404 L 155.105 53.404 Q 160.205 53.404 163.705 52.554 Q 167.205 51.704 169.355 49.604 A 10.495 10.495 0 0 0 171.394 46.767 Q 171.999 45.559 172.402 44.099 A 17.743 17.743 0 0 0 172.455 43.904 Q 173.164 41.218 173.344 37.53 A 53.947 53.947 0 0 0 173.405 34.904 Z M 375.005 34.904 L 375.005 16.504 L 334.405 16.504 Q 330.591 16.504 327.708 16.97 A 23.571 23.571 0 0 0 325.605 17.404 Q 322.105 18.304 320.005 20.454 Q 317.905 22.604 317.005 26.204 A 26.417 26.417 0 0 0 316.457 29.157 Q 316.248 30.743 316.163 32.578 A 56.939 56.939 0 0 0 316.105 35.204 L 316.105 53.404 L 356.705 53.404 Q 361.805 53.404 365.305 52.554 Q 368.805 51.704 370.955 49.604 A 10.495 10.495 0 0 0 372.994 46.767 Q 373.599 45.559 374.002 44.099 A 17.743 17.743 0 0 0 374.055 43.904 Q 374.764 41.218 374.944 37.53 A 53.947 53.947 0 0 0 375.005 34.904 Z M 681.205 34.904 L 681.205 16.504 L 640.605 16.504 Q 636.791 16.504 633.908 16.97 A 23.571 23.571 0 0 0 631.805 17.404 Q 628.305 18.304 626.205 20.454 Q 624.105 22.604 623.205 26.204 A 26.417 26.417 0 0 0 622.657 29.157 Q 622.448 30.743 622.363 32.578 A 56.939 56.939 0 0 0 622.305 35.204 L 622.305 53.404 L 662.905 53.404 Q 668.005 53.404 671.505 52.554 Q 675.005 51.704 677.155 49.604 A 10.495 10.495 0 0 0 679.194 46.767 Q 679.799 45.559 680.202 44.099 A 17.743 17.743 0 0 0 680.255 43.904 Q 680.964 41.218 681.144 37.53 A 53.947 53.947 0 0 0 681.205 34.904 Z"
      vector-effect="non-scaling-stroke" />
  </g>
</svg>